ply
format ascii 1.0
comment License-clean synthetic demo mesh generated for GNSS-VIM-Sim
element vertex 40
property float x
property float y
property float z
element face 22
property list uchar int vertex_indices
end_header
-90 -80 0
90 -80 0
90 80 0
-90 80 0
-38 -15 0
-8 -15 0
-8 18 0
-38 18 0
-38 -15 18
-8 -15 18
-8 18 18
-38 18 18
18 -35 0
52 -35 0
52 5 0
18 5 0
18 -35 24
52 -35 24
52 5 24
18 5 24
8 28 0
42 28 0
42 56 0
8 56 0
8 28 14
42 28 14
42 56 14
8 56 14
-72 32 0
-48 32 0
-48 58 0
-72 58 0
-72 32 10
-48 32 10
-48 58 10
-72 58 10
58 28 0
74 28 0
74 56 0
58 56 0
3 0 1 2
3 0 2 3
4 4 5 9 8
4 5 6 10 9
4 6 7 11 10
4 7 4 8 11
4 8 9 10 11
4 12 13 17 16
4 13 14 18 17
4 14 15 19 18
4 15 12 16 19
4 16 17 18 19
4 20 21 25 24
4 21 22 26 25
4 22 23 27 26
4 23 20 24 27
4 24 25 26 27
4 28 29 33 32
4 29 30 34 33
4 30 31 35 34
4 31 28 32 35
4 32 33 34 35
